<svg width="276" height="84" viewBox="0 0 276 84" fill="none" xmlns="http://www.w3.org/2000/svg">
<g filter="url(#filter0_d_191_11195)">
<rect x="18" y="22" width="240" height="48" rx="24" fill="#E95B2B" shape-rendering="crispEdges"/>
<rect x="13" y="17" width="250" height="58" rx="29" stroke="#DD340D" stroke-opacity="0.6" stroke-width="10" shape-rendering="crispEdges"/>
<g clip-path="url(#clip0_191_11195)">
<path d="M77.623 47.7827H70.1295C70.0837 47.7832 70.0383 47.7746 69.9959 47.7572C69.9534 47.7399 69.9148 47.7142 69.8823 47.6817C69.8497 47.6492 69.8239 47.6105 69.8063 47.5678C69.7886 47.5252 69.7795 47.4794 69.7795 47.4332V44.6406C69.7801 44.547 69.8169 44.4573 69.8822 44.3909C69.9143 44.3589 69.9523 44.3336 69.9941 44.3164C70.0359 44.2993 70.0806 44.2907 70.1257 44.291H77.623C77.7148 44.291 77.8028 44.3279 77.8678 44.3934C77.9327 44.459 77.9691 44.5479 77.9691 44.6406V47.437C77.97 47.4835 77.9612 47.5297 77.9436 47.5727C77.9259 47.6157 77.8997 47.6545 77.8664 47.6867C77.8008 47.7496 77.7134 47.7841 77.623 47.7827Z" fill="#FFCC02"/>
<path d="M86.6911 47.7836H79.1938C79.1017 47.7826 79.0136 47.7449 78.9488 47.6788C78.884 47.6126 78.8477 47.5233 78.8477 47.4303V44.6376C78.8477 44.5917 78.8566 44.5463 78.874 44.5039C78.8914 44.4615 78.9169 44.4229 78.949 44.3905C78.9812 44.358 79.0193 44.3323 79.0613 44.3147C79.1033 44.2971 79.1483 44.2881 79.1938 44.2881H86.6873C86.7795 44.2881 86.8679 44.3248 86.9334 44.3902C86.9989 44.4557 87.0363 44.5446 87.0373 44.6376V47.4379C87.0363 47.5303 86.9995 47.6187 86.9348 47.684C86.8701 47.7493 86.7826 47.7865 86.6911 47.7875V47.7836Z" fill="#FFCC02"/>
<path d="M77.6227 58.9962H70.4753C70.4298 58.9962 70.3848 58.9872 70.3428 58.9696C70.3008 58.952 70.2627 58.9263 70.2305 58.8938C70.1984 58.8614 70.1729 58.8228 70.1555 58.7804C70.1381 58.738 70.1292 58.6926 70.1292 58.6467V49.1933C70.1323 49.1003 70.1688 49.0115 70.2319 48.9436C70.2639 48.9116 70.3019 48.8863 70.3437 48.8692C70.3855 48.852 70.4302 48.8434 70.4753 48.8438H77.6265C77.7183 48.8438 77.8063 48.8806 77.8712 48.9461C77.9361 49.0117 77.9726 49.1006 77.9726 49.1933V58.6467C77.9731 58.6927 77.9645 58.7384 77.9473 58.781C77.9301 58.8237 77.9046 58.8624 77.8724 58.895C77.8401 58.9276 77.8018 58.9533 77.7595 58.9707C77.7173 58.9881 77.6721 58.9967 77.6265 58.9962H77.6227Z" fill="#FFCC02"/>
<path d="M86.3488 59.0001H79.1938C79.1483 59.0001 79.1033 58.991 79.0613 58.9734C79.0193 58.9559 78.9812 58.9301 78.949 58.8977C78.9169 58.8652 78.8914 58.8267 78.874 58.7843C78.8566 58.7419 78.8477 58.6964 78.8477 58.6505V49.1933C78.8477 49.1474 78.8566 49.1019 78.874 49.0595C78.8914 49.0171 78.9169 48.9786 78.949 48.9461C78.9812 48.9137 79.0193 48.8879 79.0613 48.8704C79.1033 48.8528 79.1483 48.8438 79.1938 48.8438H86.3488C86.4406 48.8438 86.5286 48.8806 86.5935 48.9461C86.6584 49.0117 86.6949 49.1006 86.6949 49.1933V58.6505C86.6939 58.7436 86.6566 58.8325 86.5911 58.8979C86.5256 58.9634 86.4371 59.0001 86.345 59.0001H86.3488Z" fill="#FFCC02"/>
<path d="M73.8647 43.0738C74.2991 43.511 74.7658 43.9142 75.2607 44.28H81.3772C81.871 43.9143 82.3364 43.5111 82.7694 43.0738C84.4431 41.3837 85.6831 39.2326 84.6713 38.2108C84.5479 38.0847 84.4002 37.9855 84.2372 37.9194C84.0743 37.8533 83.8997 37.8218 83.7242 37.8267C82.7428 37.8267 81.2631 38.7102 79.8595 40.1314C79.275 40.7121 78.7558 41.3562 78.3113 42.0521C77.8661 41.3568 77.347 40.7128 76.7632 40.1314C75.3558 38.714 73.8761 37.8267 72.8947 37.8267C72.7192 37.8218 72.5446 37.8533 72.3817 37.9194C72.2187 37.9855 72.071 38.0847 71.9476 38.2108C71.6014 38.5603 71.3238 39.2556 71.9818 40.5732C72.4813 41.4976 73.1161 42.3407 73.8647 43.0738ZM80.8941 41.1801C82.0353 40.0277 83.0737 39.4438 83.5568 39.3324C83.4465 39.778 82.9216 40.8228 81.7195 42.0213C80.6012 43.1545 79.5742 43.7384 79.0569 43.8651C79.1862 43.3658 79.7644 42.3209 80.8941 41.1801ZM75.74 41.1801C76.9382 42.3901 77.4669 43.4349 77.5772 43.869C77.0751 43.7576 76.0367 43.1737 74.8955 42.0213C74.2565 41.3999 73.7152 40.6836 73.2903 39.8971C73.1922 39.7156 73.118 39.5219 73.0697 39.3209C73.5718 39.4515 74.6064 40.0354 75.74 41.1801Z" fill="#FFCC02"/>
<path d="M79.9088 44.288C80.0957 43.9982 80.2016 43.6627 80.2154 43.3171C80.2291 42.9715 80.1502 42.6286 79.987 42.3246C79.8237 42.0205 79.5822 41.7666 79.2879 41.5897C78.9936 41.4127 78.6575 41.3193 78.315 41.3193C77.9725 41.3193 77.6363 41.4127 77.3421 41.5897C77.0478 41.7666 76.8062 42.0205 76.643 42.3246C76.4798 42.6286 76.4009 42.9715 76.4146 43.3171C76.4284 43.6627 76.5343 43.9982 76.7212 44.288H79.9088Z" fill="#FFCC02"/>
<path d="M68.9394 35.9936C69.1744 36.231 69.4622 36.4084 69.7787 36.511C69.8219 36.531 69.8584 36.563 69.8841 36.6033C69.9097 36.6437 69.9233 36.6906 69.9233 36.7385C69.9233 36.7864 69.9097 36.8333 69.8841 36.8737C69.8584 36.914 69.8219 36.946 69.7787 36.966C69.4624 37.0689 69.1748 37.2464 68.9398 37.4838C68.7047 37.7211 68.529 38.0115 68.4271 38.331C68.4073 38.3746 68.3756 38.4115 68.3356 38.4374C68.2957 38.4632 68.2492 38.477 68.2018 38.477C68.1543 38.477 68.1079 38.4632 68.0679 38.4374C68.028 38.4115 67.9963 38.3746 67.9765 38.331C67.8739 38.0119 67.6979 37.7218 67.463 37.4845C67.2281 37.2473 66.9408 37.0696 66.6248 36.966C66.5817 36.946 66.5451 36.914 66.5195 36.8737C66.4939 36.8333 66.4802 36.7864 66.4802 36.7385C66.4802 36.6906 66.4939 36.6437 66.5195 36.6033C66.5451 36.563 66.5817 36.531 66.6248 36.511C66.941 36.4077 67.2284 36.2302 67.4634 35.9929C67.6984 35.7555 67.8742 35.4653 67.9765 35.146C67.9963 35.1024 68.028 35.0655 68.0679 35.0396C68.1079 35.0138 68.1543 35 68.2018 35C68.2492 35 68.2957 35.0138 68.3356 35.0396C68.3756 35.0655 68.4073 35.1024 68.4271 35.146C68.5287 35.4657 68.7043 35.7563 68.9394 35.9936Z" fill="#FFCC02"/>
<path d="M89.4962 40.8784C89.7313 41.1158 90.0191 41.2932 90.3356 41.3958C90.3788 41.4157 90.4153 41.4478 90.4409 41.4881C90.4666 41.5284 90.4802 41.5753 90.4802 41.6233C90.4802 41.6712 90.4666 41.7181 90.4409 41.7584C90.4153 41.7988 90.3788 41.8308 90.3356 41.8508C90.0193 41.9537 89.7317 42.1312 89.4966 42.3685C89.2616 42.6059 89.0859 42.8963 88.9839 43.2158C88.9642 43.2593 88.9324 43.2963 88.8925 43.3221C88.8526 43.348 88.8061 43.3618 88.7587 43.3618C88.7112 43.3618 88.6647 43.348 88.6248 43.3221C88.5849 43.2963 88.5531 43.2593 88.5334 43.2158C88.4308 42.8966 88.2548 42.6066 88.0199 42.3693C87.785 42.1321 87.4977 41.9544 87.1817 41.8508C87.1385 41.8308 87.102 41.7988 87.0764 41.7584C87.0507 41.7181 87.0371 41.6712 87.0371 41.6233C87.0371 41.5753 87.0507 41.5284 87.0764 41.4881C87.102 41.4478 87.1385 41.4157 87.1817 41.3958C87.4979 41.2925 87.7853 41.1149 88.0203 40.8776C88.2553 40.6403 88.4311 40.3501 88.5334 40.0308C88.5531 39.9872 88.5849 39.9503 88.6248 39.9244C88.6647 39.8985 88.7112 39.8848 88.7587 39.8848C88.8061 39.8848 88.8526 39.8985 88.8925 39.9244C88.9324 39.9503 88.9642 39.9872 88.9839 40.0308C89.0855 40.3504 89.2612 40.641 89.4962 40.8784Z" fill="#FFCC02"/>
</g>
<path d="M107.216 46.468H113.76V53.86H111.92V48.212H108.944V53.924H107.216V46.468ZM109.344 38.932H111.2V46.948H109.344V38.932ZM110.448 42.228H114.304V44.004H110.448V42.228ZM108.128 51.556H112.784V53.3H108.128V51.556ZM101.28 40.676V44.18H105.168V40.676H101.28ZM99.856 39.396H106.656V45.46H99.856V39.396ZM101.248 41.364L102.048 41.14C102.176 41.5027 102.288 41.8973 102.384 42.324C102.48 42.7507 102.539 43.1187 102.56 43.428L101.712 43.7C101.701 43.3907 101.653 43.0173 101.568 42.58C101.483 42.1427 101.376 41.7373 101.248 41.364ZM101.744 50.708L102.928 50.58C103.003 51.028 103.056 51.5133 103.088 52.036C103.131 52.548 103.147 52.996 103.136 53.38L101.904 53.524C101.925 53.14 101.92 52.6867 101.888 52.164C101.856 51.6413 101.808 51.156 101.744 50.708ZM103.376 50.676L104.512 50.468C104.661 50.8947 104.8 51.3533 104.928 51.844C105.056 52.324 105.141 52.7507 105.184 53.124L103.984 53.364C103.963 53.0013 103.893 52.5693 103.776 52.068C103.659 51.5667 103.525 51.1027 103.376 50.676ZM104.976 50.644L106.128 50.228C106.363 50.6227 106.587 51.06 106.8 51.54C107.013 52.0093 107.163 52.42 107.248 52.772L106.032 53.252C105.957 52.8893 105.819 52.468 105.616 51.988C105.424 51.4973 105.211 51.0493 104.976 50.644ZM100.192 50.228L101.472 50.708C101.365 51.1987 101.232 51.7213 101.072 52.276C100.923 52.8307 100.736 53.3 100.512 53.684L99.184 53.14C99.3333 52.8947 99.472 52.6067 99.6 52.276C99.7387 51.9453 99.856 51.604 99.952 51.252C100.048 50.8893 100.128 50.548 100.192 50.228ZM104.384 41.124L105.344 41.444C105.195 41.828 105.04 42.2333 104.88 42.66C104.731 43.0867 104.592 43.444 104.464 43.732L103.744 43.46C103.829 43.236 103.909 42.9907 103.984 42.724C104.069 42.4467 104.149 42.1693 104.224 41.892C104.299 41.604 104.352 41.348 104.384 41.124ZM99.888 46.148H106.624V47.604H99.888V46.148ZM102.624 40.052H103.776V44.868H104.048V49.044H102.352V44.868H102.624V40.052ZM99.568 48.404H106.848V49.86H99.568V48.404ZM127.952 39.348H129.568V40.708C129.568 40.868 129.579 40.9853 129.6 41.06C129.632 41.1347 129.701 41.172 129.808 41.172C129.872 41.172 129.952 41.172 130.048 41.172C130.155 41.172 130.256 41.172 130.352 41.172C130.459 41.172 130.539 41.172 130.592 41.172C130.72 41.172 130.869 41.1667 131.04 41.156C131.221 41.1347 131.36 41.108 131.456 41.076C131.477 41.268 131.499 41.492 131.52 41.748C131.541 42.004 131.563 42.2333 131.584 42.436C131.467 42.468 131.323 42.4947 131.152 42.516C130.981 42.5267 130.811 42.532 130.64 42.532C130.565 42.532 130.459 42.532 130.32 42.532C130.192 42.532 130.059 42.532 129.92 42.532C129.792 42.532 129.685 42.532 129.6 42.532C129.141 42.532 128.789 42.4733 128.544 42.356C128.309 42.228 128.149 42.0307 128.064 41.764C127.989 41.4867 127.952 41.1293 127.952 40.692V39.348ZM117.968 48.836H129.808V49.988H117.968V48.836ZM116.528 50.468H131.648V51.7H116.528V50.468ZM123.136 47.46H125.04V52.292C125.04 52.7187 124.976 53.0333 124.848 53.236C124.731 53.4493 124.512 53.6093 124.192 53.716C123.872 53.8227 123.488 53.8867 123.04 53.908C122.592 53.9293 122.059 53.94 121.44 53.94C121.387 53.716 121.301 53.4707 121.184 53.204C121.067 52.9373 120.949 52.708 120.832 52.516C121.088 52.5267 121.349 52.532 121.616 52.532C121.893 52.532 122.139 52.5267 122.352 52.516C122.565 52.516 122.715 52.516 122.8 52.516C122.917 52.516 123.003 52.5 123.056 52.468C123.109 52.4253 123.136 52.3507 123.136 52.244V47.46ZM129.056 46.852L130.176 47.812C129.344 47.9293 128.421 48.0307 127.408 48.116C126.395 48.2013 125.328 48.2653 124.208 48.308C123.099 48.3507 121.979 48.3773 120.848 48.388C119.728 48.3987 118.64 48.3933 117.584 48.372C117.584 48.2227 117.552 48.0413 117.488 47.828C117.435 47.6147 117.381 47.4387 117.328 47.3C118.352 47.3107 119.413 47.316 120.512 47.316C121.611 47.3053 122.683 47.284 123.728 47.252C124.784 47.2093 125.765 47.156 126.672 47.092C127.589 47.0173 128.384 46.9373 129.056 46.852ZM117.008 39.636H124.016V40.58H117.008V39.636ZM116.64 44.084H124.096V45.012H116.64V44.084ZM118.688 42.644V43.044H122.32V42.644H118.688ZM118.688 41.62V42.004H122.32V41.62H118.688ZM117.44 40.964H123.616V43.7H117.44V40.964ZM119.728 38.916H121.184V46.452H119.728V38.916ZM124.704 42.82H129.552V44.02H124.704V42.82ZM125.968 39.348H128.816V40.644H125.968V39.348ZM129.12 42.82H129.424L129.712 42.772L130.592 43.044C130.272 43.8867 129.808 44.58 129.2 45.124C128.603 45.6573 127.888 46.0733 127.056 46.372C126.235 46.6707 125.312 46.9 124.288 47.06C124.224 46.8787 124.133 46.6653 124.016 46.42C123.899 46.1747 123.776 45.9773 123.648 45.828C124.533 45.7427 125.344 45.5933 126.08 45.38C126.816 45.156 127.445 44.852 127.968 44.468C128.491 44.0733 128.875 43.5773 129.12 42.98V42.82ZM126.272 43.876C126.592 44.2493 127.029 44.58 127.584 44.868C128.139 45.1453 128.773 45.3747 129.488 45.556C130.203 45.7373 130.971 45.8653 131.792 45.94C131.621 46.1 131.445 46.3133 131.264 46.58C131.083 46.836 130.939 47.0653 130.832 47.268C129.957 47.14 129.141 46.948 128.384 46.692C127.637 46.436 126.965 46.1107 126.368 45.716C125.781 45.3107 125.285 44.8467 124.88 44.324L126.272 43.876ZM124.96 39.348H126.544V40.324C126.544 40.6867 126.48 41.044 126.352 41.396C126.224 41.7373 125.989 42.052 125.648 42.34C125.307 42.628 124.811 42.8787 124.16 43.092C124.096 42.9747 123.989 42.8413 123.84 42.692C123.701 42.532 123.557 42.3827 123.408 42.244C123.259 42.0947 123.131 41.9827 123.024 41.908C123.589 41.748 124.011 41.5827 124.288 41.412C124.565 41.2413 124.747 41.06 124.832 40.868C124.917 40.676 124.96 40.4733 124.96 40.26V39.348ZM117.376 45.172H118.688V45.94H122.288V45.172H123.632V46.884H117.376V45.172ZM138.912 44.532V46.756H143.84V44.532H138.912ZM136.864 42.804H146V48.484H136.864V42.804ZM138.928 47.844H140.928C140.853 48.6227 140.72 49.3373 140.528 49.988C140.347 50.628 140.048 51.2093 139.632 51.732C139.227 52.2547 138.661 52.708 137.936 53.092C137.211 53.4867 136.261 53.8173 135.088 54.084C135.035 53.9133 134.949 53.7267 134.832 53.524C134.715 53.332 134.587 53.1347 134.448 52.932C134.32 52.74 134.187 52.58 134.048 52.452C135.083 52.2493 135.909 52.0093 136.528 51.732C137.147 51.444 137.616 51.1133 137.936 50.74C138.267 50.356 138.496 49.924 138.624 49.444C138.763 48.964 138.864 48.4307 138.928 47.844ZM141.776 47.796H143.696V51.396C143.696 51.652 143.739 51.812 143.824 51.876C143.92 51.94 144.133 51.972 144.464 51.972C144.528 51.972 144.64 51.972 144.8 51.972C144.971 51.972 145.152 51.972 145.344 51.972C145.547 51.972 145.733 51.972 145.904 51.972C146.075 51.972 146.208 51.972 146.304 51.972C146.496 51.972 146.64 51.9347 146.736 51.86C146.832 51.7747 146.901 51.6093 146.944 51.364C146.987 51.108 147.019 50.7293 147.04 50.228C147.179 50.324 147.344 50.42 147.536 50.516C147.739 50.6013 147.952 50.6813 148.176 50.756C148.4 50.8307 148.592 50.8893 148.752 50.932C148.688 51.6573 148.571 52.2173 148.4 52.612C148.24 53.0173 148.005 53.3 147.696 53.46C147.397 53.62 146.992 53.7 146.48 53.7C146.395 53.7 146.272 53.7 146.112 53.7C145.963 53.7 145.797 53.7 145.616 53.7C145.435 53.7 145.248 53.7 145.056 53.7C144.875 53.7 144.704 53.7 144.544 53.7C144.395 53.7 144.283 53.7 144.208 53.7C143.557 53.7 143.056 53.6307 142.704 53.492C142.352 53.3533 142.107 53.1187 141.968 52.788C141.84 52.4573 141.776 52.004 141.776 51.428V47.796ZM138.56 39.028L140.576 39.716C140.16 40.3987 139.659 41.044 139.072 41.652C138.485 42.2493 137.861 42.7987 137.2 43.3C136.549 43.8013 135.893 44.2333 135.232 44.596C135.125 44.4573 134.971 44.2973 134.768 44.116C134.576 43.924 134.373 43.7373 134.16 43.556C133.947 43.364 133.76 43.2147 133.6 43.108C134.272 42.8093 134.917 42.452 135.536 42.036C136.165 41.6093 136.741 41.14 137.264 40.628C137.787 40.116 138.219 39.5827 138.56 39.028ZM142.128 39.972L143.744 38.996C144.181 39.316 144.645 39.6733 145.136 40.068C145.627 40.452 146.112 40.852 146.592 41.268C147.072 41.684 147.515 42.0893 147.92 42.484C148.325 42.868 148.672 43.236 148.96 43.588L147.184 44.74C146.928 44.4093 146.608 44.0413 146.224 43.636C145.84 43.2307 145.413 42.8147 144.944 42.388C144.485 41.9613 144.011 41.54 143.52 41.124C143.04 40.708 142.576 40.324 142.128 39.972ZM150.992 47.012C151.643 46.852 152.416 46.6493 153.312 46.404C154.219 46.148 155.131 45.8813 156.048 45.604L156.32 47.316C155.488 47.5933 154.64 47.8653 153.776 48.132C152.923 48.3987 152.139 48.644 151.424 48.868L150.992 47.012ZM151.232 41.94H156.096V43.7H151.232V41.94ZM152.88 38.9H154.704V51.668C154.704 52.1267 154.661 52.4893 154.576 52.756C154.491 53.0333 154.325 53.252 154.08 53.412C153.835 53.572 153.531 53.6787 153.168 53.732C152.816 53.7853 152.389 53.812 151.888 53.812C151.856 53.556 151.792 53.2467 151.696 52.884C151.611 52.5213 151.504 52.2013 151.376 51.924C151.653 51.9347 151.904 51.94 152.128 51.94C152.363 51.94 152.528 51.94 152.624 51.94C152.795 51.94 152.88 51.8493 152.88 51.668V38.9ZM158.992 38.916L160.752 39.204C160.507 39.8333 160.208 40.4573 159.856 41.076C159.515 41.684 159.109 42.276 158.64 42.852C158.181 43.4173 157.637 43.956 157.008 44.468C156.944 44.34 156.843 44.1907 156.704 44.02C156.576 43.8493 156.437 43.6893 156.288 43.54C156.149 43.3907 156.016 43.2733 155.888 43.188C156.421 42.7827 156.885 42.34 157.28 41.86C157.685 41.3693 158.027 40.8733 158.304 40.372C158.592 39.8707 158.821 39.3853 158.992 38.916ZM159.36 40.18H162.48V41.668H158.48L159.36 40.18ZM157.088 42.82H165.184V49.284H163.584V44.34H158.64V49.284H157.088V42.82ZM155.984 48.772H166.16V50.308H155.984V48.772ZM160.176 47.476H162.032C161.968 48.34 161.851 49.1187 161.68 49.812C161.52 50.4947 161.243 51.1027 160.848 51.636C160.464 52.1587 159.915 52.612 159.2 52.996C158.485 53.38 157.541 53.6947 156.368 53.94C156.304 53.716 156.176 53.4547 155.984 53.156C155.803 52.8573 155.621 52.6227 155.44 52.452C156.464 52.2707 157.28 52.0413 157.888 51.764C158.496 51.476 158.955 51.1293 159.264 50.724C159.584 50.3187 159.803 49.8493 159.92 49.316C160.048 48.7827 160.133 48.1693 160.176 47.476ZM161.984 40.18H162.352L162.624 40.1L163.76 40.836C163.6 41.156 163.408 41.4973 163.184 41.86C162.96 42.2227 162.725 42.5693 162.48 42.9C162.245 43.2307 162.016 43.524 161.792 43.78C161.643 43.6627 161.445 43.5293 161.2 43.38C160.965 43.22 160.757 43.0973 160.576 43.012C160.768 42.7773 160.955 42.5107 161.136 42.212C161.317 41.9027 161.483 41.5987 161.632 41.3C161.781 40.9907 161.899 40.7187 161.984 40.484V40.18ZM160.736 43.924L162.144 44.308C161.845 44.9373 161.467 45.5453 161.008 46.132C160.56 46.708 160.096 47.188 159.616 47.572C159.477 47.4547 159.285 47.3107 159.04 47.14C158.795 46.9587 158.581 46.82 158.4 46.724C158.901 46.3827 159.355 45.9667 159.76 45.476C160.176 44.9747 160.501 44.4573 160.736 43.924ZM160.448 45.732L161.264 44.804C161.563 44.9533 161.877 45.124 162.208 45.316C162.539 45.508 162.853 45.7053 163.152 45.908C163.451 46.1 163.696 46.2867 163.888 46.468L163.04 47.492C162.859 47.3213 162.619 47.1293 162.32 46.916C162.032 46.7027 161.723 46.4947 161.392 46.292C161.061 46.0787 160.747 45.892 160.448 45.732ZM161.616 51.124L162.768 50.084C163.131 50.3613 163.536 50.6653 163.984 50.996C164.443 51.3267 164.88 51.652 165.296 51.972C165.712 52.292 166.053 52.5747 166.32 52.82L165.088 54.02C164.843 53.764 164.517 53.4653 164.112 53.124C163.717 52.7933 163.296 52.452 162.848 52.1C162.411 51.7373 162 51.412 161.616 51.124ZM176.464 48.644V49.572H180.608V48.644H176.464ZM174.896 47.492H182.24V50.74H174.896V47.492ZM175.936 43.108V43.876H181.136V43.108H175.936ZM175.936 41.268V42.036H181.136V41.268H175.936ZM174.4 40.148H182.736V45.012H174.4V40.148ZM173.856 45.572H183.232V46.932H173.856V45.572ZM173.664 52.244H183.408V53.668H173.664V52.244ZM176.608 38.9H178.08V40.868H176.608V38.9ZM178.976 38.9H180.48V40.868H178.976V38.9ZM176.864 40.5H178.08V44.628H176.864V40.5ZM178.976 40.5H180.192V44.628H178.976V40.5ZM179.904 50.612L181.616 51.076C181.392 51.428 181.168 51.78 180.944 52.132C180.731 52.4733 180.539 52.7613 180.368 52.996L179.136 52.564C179.275 52.2867 179.413 51.9613 179.552 51.588C179.701 51.2147 179.819 50.8893 179.904 50.612ZM175.744 51.044L177.184 50.612C177.323 50.8893 177.456 51.1987 177.584 51.54C177.723 51.8813 177.829 52.1747 177.904 52.42L176.384 52.932C176.341 52.676 176.256 52.372 176.128 52.02C176 51.6573 175.872 51.332 175.744 51.044ZM168.672 41.588H172.848V43.316H168.672V41.588ZM170.384 47.012L172.112 44.9V53.924H170.384V47.012ZM172.032 45.364C172.149 45.46 172.315 45.62 172.528 45.844C172.752 46.068 172.981 46.308 173.216 46.564C173.461 46.82 173.685 47.06 173.888 47.284C174.101 47.508 174.251 47.668 174.336 47.764L173.152 49.364C173.024 49.1507 172.864 48.9107 172.672 48.644C172.491 48.3667 172.293 48.084 172.08 47.796C171.877 47.4973 171.675 47.22 171.472 46.964C171.28 46.708 171.115 46.4947 170.976 46.324L172.032 45.364ZM172.304 41.588H172.688L173.008 41.524L174 42.212C173.68 43.1933 173.253 44.148 172.72 45.076C172.197 45.9933 171.616 46.8307 170.976 47.588C170.347 48.3347 169.707 48.9587 169.056 49.46C169.013 49.268 168.944 49.044 168.848 48.788C168.763 48.5213 168.672 48.2653 168.576 48.02C168.48 47.7747 168.395 47.588 168.32 47.46C168.896 47.076 169.445 46.5907 169.968 46.004C170.501 45.4067 170.971 44.756 171.376 44.052C171.781 43.348 172.091 42.6387 172.304 41.924V41.588ZM169.712 39.86L171.136 38.964C171.403 39.2627 171.659 39.604 171.904 39.988C172.16 40.3613 172.352 40.692 172.48 40.98L171.008 42.004C170.891 41.7053 170.704 41.3533 170.448 40.948C170.203 40.5427 169.957 40.18 169.712 39.86ZM193.456 38.9L195.2 39.236C194.997 40.1213 194.752 40.9853 194.464 41.828C194.176 42.66 193.845 43.4387 193.472 44.164C193.099 44.8787 192.693 45.508 192.256 46.052C192.16 45.9453 192.021 45.828 191.84 45.7C191.659 45.5613 191.472 45.428 191.28 45.3C191.099 45.1613 190.944 45.0493 190.816 44.964C191.243 44.4947 191.621 43.94 191.952 43.3C192.293 42.66 192.587 41.9667 192.832 41.22C193.088 40.4627 193.296 39.6893 193.456 38.9ZM198.832 41.396H200.656C200.656 41.396 200.651 41.4547 200.64 41.572C200.64 41.6787 200.64 41.8013 200.64 41.94C200.64 42.0787 200.635 42.1853 200.624 42.26C200.549 44.0627 200.469 45.5933 200.384 46.852C200.309 48.1107 200.224 49.1507 200.128 49.972C200.043 50.7827 199.941 51.4227 199.824 51.892C199.707 52.3507 199.573 52.6813 199.424 52.884C199.232 53.1507 199.04 53.3427 198.848 53.46C198.656 53.5773 198.427 53.6627 198.16 53.716C197.936 53.7587 197.664 53.78 197.344 53.78C197.024 53.7907 196.688 53.7853 196.336 53.764C196.315 53.4867 196.256 53.172 196.16 52.82C196.075 52.468 195.957 52.1587 195.808 51.892C196.107 51.924 196.384 51.9453 196.64 51.956C196.896 51.956 197.099 51.956 197.248 51.956C197.376 51.956 197.477 51.9347 197.552 51.892C197.637 51.8493 197.728 51.7693 197.824 51.652C197.931 51.524 198.032 51.2573 198.128 50.852C198.224 50.436 198.315 49.844 198.4 49.076C198.485 48.308 198.56 47.332 198.624 46.148C198.699 44.9533 198.768 43.508 198.832 41.812V41.396ZM193.936 41.396H199.648V43.172H193.072L193.936 41.396ZM195.072 41.972L196.464 42.66C196.251 43.5773 195.957 44.516 195.584 45.476C195.211 46.4253 194.773 47.316 194.272 48.148C193.781 48.98 193.248 49.668 192.672 50.212C192.491 50.0413 192.261 49.8547 191.984 49.652C191.707 49.4387 191.44 49.268 191.184 49.14C191.653 48.7773 192.091 48.3293 192.496 47.796C192.901 47.252 193.269 46.66 193.6 46.02C193.931 45.3693 194.219 44.7027 194.464 44.02C194.709 43.3267 194.912 42.644 195.072 41.972ZM197.296 42.164L198.784 42.852C198.581 43.8867 198.325 44.9213 198.016 45.956C197.717 46.9907 197.355 47.9827 196.928 48.932C196.512 49.8813 196.032 50.756 195.488 51.556C194.944 52.3453 194.336 53.012 193.664 53.556C193.483 53.3747 193.243 53.1773 192.944 52.964C192.656 52.7507 192.379 52.5747 192.112 52.436C192.805 51.9347 193.429 51.316 193.984 50.58C194.549 49.8333 195.045 49.0067 195.472 48.1C195.899 47.1827 196.261 46.2227 196.56 45.22C196.859 44.2067 197.104 43.188 197.296 42.164ZM185.632 47.636C186.155 47.508 186.747 47.3587 187.408 47.188C188.08 47.0173 188.784 46.8307 189.52 46.628C190.267 46.4147 191.008 46.2067 191.744 46.004L191.984 47.684C190.981 48.004 189.957 48.324 188.912 48.644C187.877 48.9533 186.939 49.2307 186.096 49.476L185.632 47.636ZM188.496 38.916H190.256V53.94H188.496V38.916ZM186.384 39.828L188 40.084C187.925 40.788 187.835 41.4973 187.728 42.212C187.621 42.916 187.493 43.5827 187.344 44.212C187.195 44.8413 187.024 45.396 186.832 45.876C186.736 45.8013 186.603 45.7107 186.432 45.604C186.261 45.4867 186.091 45.3747 185.92 45.268C185.749 45.1507 185.6 45.0653 185.472 45.012C185.643 44.5747 185.787 44.0787 185.904 43.524C186.032 42.9587 186.133 42.3613 186.208 41.732C186.293 41.092 186.352 40.4573 186.384 39.828ZM186.832 42.004H191.6V43.828H186.464L186.832 42.004Z" fill="white"/>
</g>
<defs>
<filter id="filter0_d_191_11195" x="0" y="0" width="276" height="84" filterUnits="userSpaceOnUse" color-interpolation-filters="sRGB">
<feFlood flood-opacity="0" result="BackgroundImageFix"/>
<feColorMatrix in="SourceAlpha" type="matrix" values="0 0 0 0 0 0 0 0 0 0 0 0 0 0 0 0 0 0 127 0" result="hardAlpha"/>
<feOffset dy="-4"/>
<feGaussianBlur stdDeviation="4"/>
<feComposite in2="hardAlpha" operator="out"/>
<feColorMatrix type="matrix" values="0 0 0 0 0 0 0 0 0 0 0 0 0 0 0 0 0 0 0.1 0"/>
<feBlend mode="normal" in2="BackgroundImageFix" result="effect1_dropShadow_191_11195"/>
<feBlend mode="normal" in="SourceGraphic" in2="effect1_dropShadow_191_11195" result="shape"/>
</filter>
<clipPath id="clip0_191_11195">
<rect width="24" height="24" fill="white" transform="translate(66.5 34)"/>
</clipPath>
</defs>
</svg>
