<svg width="62" height="60" viewBox="0 0 62 60" fill="none" xmlns="http://www.w3.org/2000/svg">
<g opacity="0.25">
<mask id="mask0_363_392" style="mask-type:luminance" maskUnits="userSpaceOnUse" x="0" y="0" width="62" height="60">
<path d="M61.5966 0H0.00012207V60.0002H61.5966V0Z" fill="white"/>
</mask>
<g mask="url(#mask0_363_392)">
<path d="M100.565 34.7683C91.8095 36.8815 94.3389 45.8125 85.5868 47.9257C76.8347 50.039 75.6968 40.7667 66.5448 42.9742C57.3895 45.185 60.3188 54.0217 51.5667 56.1349L56.3524 59.3016C65.098 57.1883 62.1719 48.3516 71.3207 46.1441C80.4727 43.9333 81.6106 53.2089 90.366 51.0956C99.1182 48.9824 96.592 40.0482 105.344 37.9349C106.524 37.6488 107.568 37.5773 108.514 37.6488V36.2541C106.424 34.9081 104.099 33.9165 100.571 34.765" fill="#F08300"/>
<path d="M90.3205 27.9149C81.5651 30.0281 84.0945 38.9591 75.3424 41.0691C66.587 43.1823 65.4491 33.9133 56.2971 36.1208C47.1451 38.3283 50.0711 47.1682 41.319 49.2783L46.1047 52.4449C54.8503 50.3316 51.9243 41.495 61.073 39.2874C70.2251 37.0831 71.363 46.3522 80.1183 44.239C88.8705 42.1289 86.3411 33.1948 95.0964 31.0815C101.648 29.5014 104.047 34.2644 108.507 35.877V33.0452C100.341 34.5505 98.8483 25.8536 90.3205 27.9116" fill="#F08300"/>
<path d="M98.8191 26.0778C97.9835 26.2761 97.2195 26.3769 96.5075 26.3899C91.2211 26.0128 89.0818 20.8987 83.4085 20.8142C82.3942 20.7069 81.266 20.7654 79.9753 21.0742C71.2232 23.1875 73.7526 32.1217 64.9972 34.235C56.2418 36.345 55.1072 27.0759 45.9552 29.2834C36.8031 31.491 39.7292 40.3276 30.9771 42.4409L35.7595 45.6075C44.5019 43.4943 41.5791 34.6576 50.7311 32.4533C59.8831 30.2458 61.0178 39.5148 69.7764 37.4048C78.5318 35.2916 76.0024 26.3606 84.7545 24.2474C86.0452 23.9353 87.1701 23.8768 88.1878 23.9873C93.861 24.0718 96.0003 29.1859 101.287 29.563C101.999 29.5468 102.766 29.4492 103.598 29.2477C105.855 28.7047 107.363 27.7196 108.514 26.5232V16.3926C105.585 19.8356 104.983 24.5953 98.8223 26.081" fill="#F39800"/>
<path d="M104.349 6.09023C104.252 6.11298 104.161 6.14224 104.066 6.16825C103.975 6.18776 103.891 6.20076 103.797 6.22677C94.8429 8.38554 97.33 17.1149 88.5746 19.2249C87.7391 19.4265 86.9718 19.524 86.263 19.5338C80.9734 19.1599 78.8374 14.0458 73.1609 13.9613C72.1465 13.8507 71.0183 13.9125 69.7276 14.2246C60.9755 16.3346 63.5049 25.2688 54.7528 27.3821C45.9974 29.4953 44.8627 20.223 35.7075 22.4338C26.5555 24.6414 29.4847 33.4813 20.7294 35.5913L25.5118 38.7579C34.2575 36.6446 31.3347 27.808 40.4834 25.6037C49.6355 23.3929 50.7734 32.6652 59.5287 30.552C68.2809 28.442 65.7515 19.5045 74.5068 17.3945C75.8008 17.0824 76.9225 17.0239 77.9433 17.1312C83.6134 17.219 85.7559 22.3298 91.0423 22.7069C91.7543 22.6907 92.5215 22.5964 93.3538 22.3948C102.086 20.2881 99.6351 11.5977 108.511 9.41291V5.94067C107.314 5.70334 105.959 5.70659 104.349 6.09348" fill="#F39800"/>
<path d="M19.8354 12.1402C28.9874 9.93262 30.1253 19.2049 38.8775 17.0917C47.6328 14.9784 45.1034 6.04423 53.8556 3.93098C62.6109 1.82097 63.9504 11.0445 72.6993 8.93127C74.6793 8.45335 76.0805 7.6373 77.1762 6.63595C80.5379 3.1572 80.5671 -2.28524 87.4758 -3.95309C87.5213 -3.96609 87.5669 -3.96935 87.6124 -3.9791C87.7132 -4.00836 87.8139 -4.04087 87.9212 -4.06688C89.1372 -4.36274 90.2068 -4.44076 91.1659 -4.37249L91.3382 -4.36599C92.5802 -4.19368 93.653 -3.76452 94.6446 -3.21833C92.034 -4.73987 89.9207 -7.0677 86.5623 -7.53587L86.3899 -7.54237C85.4308 -7.61065 84.3612 -7.53262 83.142 -7.23676C83.0347 -7.21075 82.934 -7.17824 82.8299 -7.15223C82.7812 -7.13923 82.7389 -7.13598 82.6934 -7.12297C75.7847 -5.45513 75.7586 -0.0126815 72.3937 3.46281C71.3013 4.46742 69.9001 5.28346 67.9201 5.76138C59.1647 7.87464 57.8285 -1.35216 49.0764 0.761096C40.321 2.87435 42.8536 11.8085 34.1015 13.9186C25.3461 16.0318 24.2082 6.75949 15.0562 8.96703C5.90743 11.1811 8.83672 20.021 0.0845947 22.1342L4.86705 25.2976C13.6094 23.1844 10.6899 14.3477 19.8354 12.1402Z" fill="#F6AB00"/>
<path d="M30.0797 18.9966C39.2318 16.789 40.3697 26.0581 49.1251 23.9481C57.8772 21.8381 55.3478 12.9039 64.1032 10.7906C72.8585 8.67739 74.1915 17.9009 82.9469 15.7877C84.9269 15.3098 86.3281 14.4937 87.4205 13.4924C90.7855 10.0136 90.8115 4.57117 97.7202 2.90332C97.7689 2.89357 97.8112 2.88707 97.8567 2.87406C97.964 2.84805 98.0583 2.81554 98.1688 2.78953C99.3913 2.49368 100.454 2.41565 101.417 2.48392L101.589 2.49368C102.834 2.66599 103.904 3.09514 104.895 3.64459C102.285 2.11979 100.172 -0.20804 96.8131 -0.672956L96.6408 -0.68271C95.6817 -0.747733 94.6153 -0.669705 93.3929 -0.3771C93.2856 -0.351091 93.188 -0.318579 93.0808 -0.29257C93.0352 -0.279566 92.993 -0.276315 92.9442 -0.26331C86.0355 1.40454 86.0095 6.84698 82.6445 10.3225C81.5521 11.3271 80.1541 12.1431 78.1709 12.621C69.4188 14.7343 68.0793 5.51075 59.3272 7.62076C50.5718 9.73401 53.1045 18.6682 44.3491 20.7815C35.597 22.8947 34.4558 13.6224 25.3038 15.8332C16.1518 18.0407 19.0811 26.8806 10.3257 28.9939L15.1114 32.1573C23.8538 30.0408 20.931 21.2074 30.0797 18.9998" fill="#F6AB00"/>
</g>
</g>
</svg>
