<svg width="256" height="64" viewBox="0 0 256 64" fill="none" xmlns="http://www.w3.org/2000/svg">
<g filter="url(#filter0_d_191_13090)">
<rect x="9" y="13" width="238" height="46" rx="23" stroke="#E95B2B" stroke-width="2" shape-rendering="crispEdges"/>
<g clip-path="url(#clip0_191_13090)">
<path d="M67.3491 48.9024H60.1495C60.1037 48.9024 60.0583 48.8933 60.016 48.8758C59.9737 48.8583 59.9353 48.8326 59.9029 48.8002C59.8705 48.7679 59.8448 48.7294 59.8273 48.6871C59.8098 48.6448 59.8008 48.5995 59.8008 48.5537V39.1241C59.8039 39.0313 59.8407 38.9428 59.9042 38.875C59.9365 38.8431 59.9748 38.8178 60.0169 38.8008C60.059 38.7837 60.104 38.775 60.1495 38.7754H67.3529C67.4454 38.7754 67.5341 38.8121 67.5995 38.8775C67.6648 38.9429 67.7016 39.0316 67.7016 39.1241V48.5537C67.7021 48.5996 67.6934 48.6452 67.6761 48.6877C67.6587 48.7303 67.6331 48.7689 67.6006 48.8014C67.5681 48.8339 67.5295 48.8595 67.4869 48.8769C67.4444 48.8942 67.3988 48.9029 67.3529 48.9024H67.3491Z" fill="#E95B2B"/>
<path d="M76.1387 48.9062H68.9314C68.8857 48.9062 68.8403 48.8972 68.798 48.8796C68.7557 48.8621 68.7173 48.8364 68.6849 48.8041C68.6525 48.7717 68.6268 48.7332 68.6093 48.6909C68.5918 48.6486 68.5828 48.6033 68.5828 48.5575V39.1241C68.5828 39.0783 68.5918 39.0329 68.6093 38.9906C68.6268 38.9483 68.6525 38.9099 68.6849 38.8775C68.7173 38.8451 68.7557 38.8195 68.798 38.8019C68.8403 38.7844 68.8857 38.7754 68.9314 38.7754H76.1387C76.2312 38.7754 76.3199 38.8121 76.3853 38.8775C76.4507 38.9429 76.4874 39.0316 76.4874 39.1241V48.5575C76.4864 48.6503 76.4488 48.739 76.3828 48.8043C76.3168 48.8696 76.2277 48.9062 76.1349 48.9062H76.1387Z" fill="#E95B2B"/>
<path d="M67.4636 35.2472L60.123 33.4888C60.078 33.4785 60.0355 33.4595 59.998 33.4327C59.9604 33.4059 59.9286 33.3719 59.9043 33.3328C59.8799 33.2936 59.8636 33.25 59.8563 33.2045C59.8489 33.1589 59.8506 33.1124 59.8614 33.0676L60.5103 30.3586C60.5326 30.268 60.5895 30.1896 60.6689 30.1405C60.7078 30.117 60.7509 30.1014 60.7958 30.0945C60.8407 30.0877 60.8865 30.0898 60.9306 30.1008L68.275 31.8601C68.3649 31.8817 68.4426 31.9381 68.4909 32.0169C68.5393 32.0957 68.5544 32.1905 68.5328 32.2804L67.883 34.9931C67.873 35.0384 67.8537 35.0812 67.8264 35.1187C67.7991 35.1562 67.7644 35.1877 67.7244 35.2112C67.6455 35.2568 67.5519 35.2698 67.4636 35.2472Z" fill="#E95B2B"/>
<path d="M76.3469 37.376L69.0026 35.6166C68.9126 35.594 68.8351 35.5368 68.787 35.4574C68.7389 35.378 68.724 35.2828 68.7457 35.1926L69.3946 32.4836C69.4053 32.4391 69.4246 32.3971 69.4515 32.36C69.4784 32.323 69.5123 32.2916 69.5514 32.2676C69.5904 32.2437 69.6338 32.2277 69.679 32.2205C69.7242 32.2133 69.7704 32.2151 69.8149 32.2258L77.1555 33.9842C77.2458 34.0059 77.3239 34.0622 77.3729 34.1411C77.4218 34.2199 77.4377 34.3149 77.4171 34.4054L76.7664 37.1218C76.7439 37.2112 76.6874 37.2883 76.6088 37.3365C76.5302 37.3847 76.4359 37.4002 76.3461 37.3797L76.3469 37.376Z" fill="#E95B2B"/>
<path d="M64.8763 29.7978C65.2003 30.3238 65.5637 30.8245 65.9635 31.2954L71.9552 32.7308C72.5239 32.4919 73.0735 32.21 73.5993 31.8875C75.6316 30.6407 77.3462 28.845 76.5925 27.6164C76.5009 27.4651 76.3792 27.3342 76.2349 27.2319C76.0907 27.1296 75.927 27.058 75.7539 27.0215C74.7925 26.7912 73.1377 27.301 71.4325 28.3503C70.725 28.7765 70.0667 29.2795 69.4696 29.8501C69.1951 29.0712 68.8362 28.3247 68.3994 27.6237C67.3501 25.9185 66.1068 24.7105 65.1454 24.4802C64.9746 24.4343 64.7962 24.4239 64.6213 24.4498C64.4463 24.4757 64.2785 24.5372 64.1283 24.6306C63.708 24.8884 63.2745 25.4977 63.6129 26.9302C63.8874 27.9442 64.3133 28.911 64.8763 29.7978ZM72.2024 29.6104C73.588 28.7603 74.7409 28.4376 75.24 28.4429C75.0284 28.8493 74.2714 29.7396 72.8154 30.6201C71.4566 31.4569 70.3149 31.7823 69.7786 31.7839C70.0214 31.3298 70.8306 30.4519 72.2024 29.6104ZM67.1534 28.4009C68.0459 29.8558 68.3211 30.9934 68.3283 31.4403C67.8623 31.2145 66.9807 30.4044 66.1307 29.0187C65.6491 28.266 65.2853 27.4441 65.0518 26.5815C64.9979 26.3824 64.9702 26.1771 64.9696 25.9708C65.4311 26.2153 66.3089 27.0245 67.1534 28.4009Z" fill="#E95B2B"/>
<path d="M70.5153 32.3934C70.7657 32.1561 70.9474 31.8556 71.0412 31.5236C71.135 31.1916 71.1374 30.8404 71.0481 30.5071C70.9589 30.1739 70.7813 29.8709 70.5341 29.6302C70.2869 29.3895 69.9794 29.22 69.6439 29.1397C69.3084 29.0593 68.9574 29.071 68.628 29.1736C68.2986 29.2762 68.003 29.4658 67.7724 29.7224C67.5418 29.9791 67.3848 30.2932 67.318 30.6317C67.2512 30.9701 67.277 31.3204 67.3927 31.6454L70.5153 32.3934Z" fill="#E95B2B"/>
</g>
<path d="M97.344 38.144V39.072H101.488V38.144H97.344ZM95.776 36.992H103.12V40.24H95.776V36.992ZM96.816 32.608V33.376H102.016V32.608H96.816ZM96.816 30.768V31.536H102.016V30.768H96.816ZM95.28 29.648H103.616V34.512H95.28V29.648ZM94.736 35.072H104.112V36.432H94.736V35.072ZM94.544 41.744H104.288V43.168H94.544V41.744ZM97.488 28.4H98.96V30.368H97.488V28.4ZM99.856 28.4H101.36V30.368H99.856V28.4ZM97.744 30H98.96V34.128H97.744V30ZM99.856 30H101.072V34.128H99.856V30ZM100.784 40.112L102.496 40.576C102.272 40.928 102.048 41.28 101.824 41.632C101.611 41.9733 101.419 42.2613 101.248 42.496L100.016 42.064C100.155 41.7867 100.293 41.4613 100.432 41.088C100.581 40.7147 100.699 40.3893 100.784 40.112ZM96.624 40.544L98.064 40.112C98.2027 40.3893 98.336 40.6987 98.464 41.04C98.6027 41.3813 98.7093 41.6747 98.784 41.92L97.264 42.432C97.2213 42.176 97.136 41.872 97.008 41.52C96.88 41.1573 96.752 40.832 96.624 40.544ZM89.552 31.088H93.728V32.816H89.552V31.088ZM91.264 36.512L92.992 34.4V43.424H91.264V36.512ZM92.912 34.864C93.0293 34.96 93.1947 35.12 93.408 35.344C93.632 35.568 93.8613 35.808 94.096 36.064C94.3413 36.32 94.5653 36.56 94.768 36.784C94.9813 37.008 95.1307 37.168 95.216 37.264L94.032 38.864C93.904 38.6507 93.744 38.4107 93.552 38.144C93.3707 37.8667 93.1733 37.584 92.96 37.296C92.7573 36.9973 92.5547 36.72 92.352 36.464C92.16 36.208 91.9947 35.9947 91.856 35.824L92.912 34.864ZM93.184 31.088H93.568L93.888 31.024L94.88 31.712C94.56 32.6933 94.1333 33.648 93.6 34.576C93.0773 35.4933 92.496 36.3307 91.856 37.088C91.2267 37.8347 90.5867 38.4587 89.936 38.96C89.8933 38.768 89.824 38.544 89.728 38.288C89.6427 38.0213 89.552 37.7653 89.456 37.52C89.36 37.2747 89.2747 37.088 89.2 36.96C89.776 36.576 90.3253 36.0907 90.848 35.504C91.3813 34.9067 91.8507 34.256 92.256 33.552C92.6613 32.848 92.9707 32.1387 93.184 31.424V31.088ZM90.592 29.36L92.016 28.464C92.2827 28.7627 92.5387 29.104 92.784 29.488C93.04 29.8613 93.232 30.192 93.36 30.48L91.888 31.504C91.7707 31.2053 91.584 30.8533 91.328 30.448C91.0827 30.0427 90.8373 29.68 90.592 29.36ZM114.336 28.4L116.08 28.736C115.877 29.6213 115.632 30.4853 115.344 31.328C115.056 32.16 114.725 32.9387 114.352 33.664C113.979 34.3787 113.573 35.008 113.136 35.552C113.04 35.4453 112.901 35.328 112.72 35.2C112.539 35.0613 112.352 34.928 112.16 34.8C111.979 34.6613 111.824 34.5493 111.696 34.464C112.123 33.9947 112.501 33.44 112.832 32.8C113.173 32.16 113.467 31.4667 113.712 30.72C113.968 29.9627 114.176 29.1893 114.336 28.4ZM119.712 30.896H121.536C121.536 30.896 121.531 30.9547 121.52 31.072C121.52 31.1787 121.52 31.3013 121.52 31.44C121.52 31.5787 121.515 31.6853 121.504 31.76C121.429 33.5627 121.349 35.0933 121.264 36.352C121.189 37.6107 121.104 38.6507 121.008 39.472C120.923 40.2827 120.821 40.9227 120.704 41.392C120.587 41.8507 120.453 42.1813 120.304 42.384C120.112 42.6507 119.92 42.8427 119.728 42.96C119.536 43.0773 119.307 43.1627 119.04 43.216C118.816 43.2587 118.544 43.28 118.224 43.28C117.904 43.2907 117.568 43.2853 117.216 43.264C117.195 42.9867 117.136 42.672 117.04 42.32C116.955 41.968 116.837 41.6587 116.688 41.392C116.987 41.424 117.264 41.4453 117.52 41.456C117.776 41.456 117.979 41.456 118.128 41.456C118.256 41.456 118.357 41.4347 118.432 41.392C118.517 41.3493 118.608 41.2693 118.704 41.152C118.811 41.024 118.912 40.7573 119.008 40.352C119.104 39.936 119.195 39.344 119.28 38.576C119.365 37.808 119.44 36.832 119.504 35.648C119.579 34.4533 119.648 33.008 119.712 31.312V30.896ZM114.816 30.896H120.528V32.672H113.952L114.816 30.896ZM115.952 31.472L117.344 32.16C117.131 33.0773 116.837 34.016 116.464 34.976C116.091 35.9253 115.653 36.816 115.152 37.648C114.661 38.48 114.128 39.168 113.552 39.712C113.371 39.5413 113.141 39.3547 112.864 39.152C112.587 38.9387 112.32 38.768 112.064 38.64C112.533 38.2773 112.971 37.8293 113.376 37.296C113.781 36.752 114.149 36.16 114.48 35.52C114.811 34.8693 115.099 34.2027 115.344 33.52C115.589 32.8267 115.792 32.144 115.952 31.472ZM118.176 31.664L119.664 32.352C119.461 33.3867 119.205 34.4213 118.896 35.456C118.597 36.4907 118.235 37.4827 117.808 38.432C117.392 39.3813 116.912 40.256 116.368 41.056C115.824 41.8453 115.216 42.512 114.544 43.056C114.363 42.8747 114.123 42.6773 113.824 42.464C113.536 42.2507 113.259 42.0747 112.992 41.936C113.685 41.4347 114.309 40.816 114.864 40.08C115.429 39.3333 115.925 38.5067 116.352 37.6C116.779 36.6827 117.141 35.7227 117.44 34.72C117.739 33.7067 117.984 32.688 118.176 31.664ZM106.512 37.136C107.035 37.008 107.627 36.8587 108.288 36.688C108.96 36.5173 109.664 36.3307 110.4 36.128C111.147 35.9147 111.888 35.7067 112.624 35.504L112.864 37.184C111.861 37.504 110.837 37.824 109.792 38.144C108.757 38.4533 107.819 38.7307 106.976 38.976L106.512 37.136ZM109.376 28.416H111.136V43.44H109.376V28.416ZM107.264 29.328L108.88 29.584C108.805 30.288 108.715 30.9973 108.608 31.712C108.501 32.416 108.373 33.0827 108.224 33.712C108.075 34.3413 107.904 34.896 107.712 35.376C107.616 35.3013 107.483 35.2107 107.312 35.104C107.141 34.9867 106.971 34.8747 106.8 34.768C106.629 34.6507 106.48 34.5653 106.352 34.512C106.523 34.0747 106.667 33.5787 106.784 33.024C106.912 32.4587 107.013 31.8613 107.088 31.232C107.173 30.592 107.232 29.9573 107.264 29.328ZM107.712 31.504H112.48V33.328H107.344L107.712 31.504ZM128.912 34.032V36.256H133.84V34.032H128.912ZM126.864 32.304H136V37.984H126.864V32.304ZM128.928 37.344H130.928C130.853 38.1227 130.72 38.8373 130.528 39.488C130.347 40.128 130.048 40.7093 129.632 41.232C129.227 41.7547 128.661 42.208 127.936 42.592C127.211 42.9867 126.261 43.3173 125.088 43.584C125.035 43.4133 124.949 43.2267 124.832 43.024C124.715 42.832 124.587 42.6347 124.448 42.432C124.32 42.24 124.187 42.08 124.048 41.952C125.083 41.7493 125.909 41.5093 126.528 41.232C127.147 40.944 127.616 40.6133 127.936 40.24C128.267 39.856 128.496 39.424 128.624 38.944C128.763 38.464 128.864 37.9307 128.928 37.344ZM131.776 37.296H133.696V40.896C133.696 41.152 133.739 41.312 133.824 41.376C133.92 41.44 134.133 41.472 134.464 41.472C134.528 41.472 134.64 41.472 134.8 41.472C134.971 41.472 135.152 41.472 135.344 41.472C135.547 41.472 135.733 41.472 135.904 41.472C136.075 41.472 136.208 41.472 136.304 41.472C136.496 41.472 136.64 41.4347 136.736 41.36C136.832 41.2747 136.901 41.1093 136.944 40.864C136.987 40.608 137.019 40.2293 137.04 39.728C137.179 39.824 137.344 39.92 137.536 40.016C137.739 40.1013 137.952 40.1813 138.176 40.256C138.4 40.3307 138.592 40.3893 138.752 40.432C138.688 41.1573 138.571 41.7173 138.4 42.112C138.24 42.5173 138.005 42.8 137.696 42.96C137.397 43.12 136.992 43.2 136.48 43.2C136.395 43.2 136.272 43.2 136.112 43.2C135.963 43.2 135.797 43.2 135.616 43.2C135.435 43.2 135.248 43.2 135.056 43.2C134.875 43.2 134.704 43.2 134.544 43.2C134.395 43.2 134.283 43.2 134.208 43.2C133.557 43.2 133.056 43.1307 132.704 42.992C132.352 42.8533 132.107 42.6187 131.968 42.288C131.84 41.9573 131.776 41.504 131.776 40.928V37.296ZM128.56 28.528L130.576 29.216C130.16 29.8987 129.659 30.544 129.072 31.152C128.485 31.7493 127.861 32.2987 127.2 32.8C126.549 33.3013 125.893 33.7333 125.232 34.096C125.125 33.9573 124.971 33.7973 124.768 33.616C124.576 33.424 124.373 33.2373 124.16 33.056C123.947 32.864 123.76 32.7147 123.6 32.608C124.272 32.3093 124.917 31.952 125.536 31.536C126.165 31.1093 126.741 30.64 127.264 30.128C127.787 29.616 128.219 29.0827 128.56 28.528ZM132.128 29.472L133.744 28.496C134.181 28.816 134.645 29.1733 135.136 29.568C135.627 29.952 136.112 30.352 136.592 30.768C137.072 31.184 137.515 31.5893 137.92 31.984C138.325 32.368 138.672 32.736 138.96 33.088L137.184 34.24C136.928 33.9093 136.608 33.5413 136.224 33.136C135.84 32.7307 135.413 32.3147 134.944 31.888C134.485 31.4613 134.011 31.04 133.52 30.624C133.04 30.208 132.576 29.824 132.128 29.472ZM140.992 36.512C141.643 36.352 142.416 36.1493 143.312 35.904C144.219 35.648 145.131 35.3813 146.048 35.104L146.32 36.816C145.488 37.0933 144.64 37.3653 143.776 37.632C142.923 37.8987 142.139 38.144 141.424 38.368L140.992 36.512ZM141.232 31.44H146.096V33.2H141.232V31.44ZM142.88 28.4H144.704V41.168C144.704 41.6267 144.661 41.9893 144.576 42.256C144.491 42.5333 144.325 42.752 144.08 42.912C143.835 43.072 143.531 43.1787 143.168 43.232C142.816 43.2853 142.389 43.312 141.888 43.312C141.856 43.056 141.792 42.7467 141.696 42.384C141.611 42.0213 141.504 41.7013 141.376 41.424C141.653 41.4347 141.904 41.44 142.128 41.44C142.363 41.44 142.528 41.44 142.624 41.44C142.795 41.44 142.88 41.3493 142.88 41.168V28.4ZM148.992 28.416L150.752 28.704C150.507 29.3333 150.208 29.9573 149.856 30.576C149.515 31.184 149.109 31.776 148.64 32.352C148.181 32.9173 147.637 33.456 147.008 33.968C146.944 33.84 146.843 33.6907 146.704 33.52C146.576 33.3493 146.437 33.1893 146.288 33.04C146.149 32.8907 146.016 32.7733 145.888 32.688C146.421 32.2827 146.885 31.84 147.28 31.36C147.685 30.8693 148.027 30.3733 148.304 29.872C148.592 29.3707 148.821 28.8853 148.992 28.416ZM149.36 29.68H152.48V31.168H148.48L149.36 29.68ZM147.088 32.32H155.184V38.784H153.584V33.84H148.64V38.784H147.088V32.32ZM145.984 38.272H156.16V39.808H145.984V38.272ZM150.176 36.976H152.032C151.968 37.84 151.851 38.6187 151.68 39.312C151.52 39.9947 151.243 40.6027 150.848 41.136C150.464 41.6587 149.915 42.112 149.2 42.496C148.485 42.88 147.541 43.1947 146.368 43.44C146.304 43.216 146.176 42.9547 145.984 42.656C145.803 42.3573 145.621 42.1227 145.44 41.952C146.464 41.7707 147.28 41.5413 147.888 41.264C148.496 40.976 148.955 40.6293 149.264 40.224C149.584 39.8187 149.803 39.3493 149.92 38.816C150.048 38.2827 150.133 37.6693 150.176 36.976ZM151.984 29.68H152.352L152.624 29.6L153.76 30.336C153.6 30.656 153.408 30.9973 153.184 31.36C152.96 31.7227 152.725 32.0693 152.48 32.4C152.245 32.7307 152.016 33.024 151.792 33.28C151.643 33.1627 151.445 33.0293 151.2 32.88C150.965 32.72 150.757 32.5973 150.576 32.512C150.768 32.2773 150.955 32.0107 151.136 31.712C151.317 31.4027 151.483 31.0987 151.632 30.8C151.781 30.4907 151.899 30.2187 151.984 29.984V29.68ZM150.736 33.424L152.144 33.808C151.845 34.4373 151.467 35.0453 151.008 35.632C150.56 36.208 150.096 36.688 149.616 37.072C149.477 36.9547 149.285 36.8107 149.04 36.64C148.795 36.4587 148.581 36.32 148.4 36.224C148.901 35.8827 149.355 35.4667 149.76 34.976C150.176 34.4747 150.501 33.9573 150.736 33.424ZM150.448 35.232L151.264 34.304C151.563 34.4533 151.877 34.624 152.208 34.816C152.539 35.008 152.853 35.2053 153.152 35.408C153.451 35.6 153.696 35.7867 153.888 35.968L153.04 36.992C152.859 36.8213 152.619 36.6293 152.32 36.416C152.032 36.2027 151.723 35.9947 151.392 35.792C151.061 35.5787 150.747 35.392 150.448 35.232ZM151.616 40.624L152.768 39.584C153.131 39.8613 153.536 40.1653 153.984 40.496C154.443 40.8267 154.88 41.152 155.296 41.472C155.712 41.792 156.053 42.0747 156.32 42.32L155.088 43.52C154.843 43.264 154.517 42.9653 154.112 42.624C153.717 42.2933 153.296 41.952 152.848 41.6C152.411 41.2373 152 40.912 151.616 40.624ZM161.712 33.056H170.016V34.816H161.712V33.056ZM158.752 36H173.088V37.808H158.752V36ZM162.752 37.312H164.704C164.672 38.1653 164.587 38.9227 164.448 39.584C164.309 40.2453 164.064 40.8267 163.712 41.328C163.36 41.8293 162.843 42.2507 162.16 42.592C161.488 42.944 160.592 43.2267 159.472 43.44C159.429 43.2693 159.349 43.0827 159.232 42.88C159.125 42.688 159.003 42.4907 158.864 42.288C158.725 42.096 158.592 41.936 158.464 41.808C159.435 41.648 160.197 41.4507 160.752 41.216C161.317 40.9707 161.733 40.672 162 40.32C162.277 39.968 162.464 39.5467 162.56 39.056C162.656 38.5547 162.72 37.9733 162.752 37.312ZM166.848 37.072H168.8V40.88C168.8 41.136 168.837 41.296 168.912 41.36C168.987 41.424 169.163 41.456 169.44 41.456C169.504 41.456 169.6 41.456 169.728 41.456C169.867 41.456 170.016 41.456 170.176 41.456C170.347 41.456 170.507 41.456 170.656 41.456C170.805 41.456 170.917 41.456 170.992 41.456C171.163 41.456 171.291 41.4133 171.376 41.328C171.472 41.232 171.536 41.0453 171.568 40.768C171.611 40.4907 171.643 40.0747 171.664 39.52C171.803 39.616 171.973 39.712 172.176 39.808C172.379 39.904 172.587 39.9893 172.8 40.064C173.024 40.1387 173.221 40.2027 173.392 40.256C173.328 41.024 173.216 41.6213 173.056 42.048C172.896 42.4853 172.667 42.7893 172.368 42.96C172.08 43.1307 171.685 43.216 171.184 43.216C171.077 43.216 170.933 43.216 170.752 43.216C170.571 43.216 170.373 43.216 170.16 43.216C169.947 43.216 169.749 43.216 169.568 43.216C169.387 43.216 169.248 43.216 169.152 43.216C168.533 43.216 168.059 43.1413 167.728 42.992C167.397 42.8533 167.168 42.6133 167.04 42.272C166.912 41.9307 166.848 41.472 166.848 40.896V37.072ZM159.04 30.048H172.752V34.048H170.752V31.888H160.96V34.048H159.04V30.048ZM164.384 28.8L166.352 28.224C166.565 28.5867 166.763 28.9813 166.944 29.408C167.136 29.8347 167.275 30.2133 167.36 30.544L165.264 31.168C165.2 30.8587 165.083 30.48 164.912 30.032C164.752 29.5733 164.576 29.1627 164.384 28.8ZM178.112 34.432H181.808V36.176H178.112V34.432ZM181.072 34.432H182.928C182.928 34.432 182.928 34.4747 182.928 34.56C182.928 34.6453 182.928 34.7467 182.928 34.864C182.928 34.9707 182.928 35.0613 182.928 35.136C182.907 36.2667 182.88 37.1947 182.848 37.92C182.816 38.6347 182.763 39.1947 182.688 39.6C182.624 39.9947 182.533 40.272 182.416 40.432C182.256 40.6347 182.085 40.7787 181.904 40.864C181.733 40.9493 181.531 41.0133 181.296 41.056C181.083 41.0987 180.811 41.1253 180.48 41.136C180.16 41.136 179.808 41.1307 179.424 41.12C179.413 40.8427 179.36 40.5333 179.264 40.192C179.168 39.8507 179.051 39.5627 178.912 39.328C179.2 39.3493 179.467 39.3653 179.712 39.376C179.968 39.3867 180.16 39.392 180.288 39.392C180.395 39.392 180.485 39.3813 180.56 39.36C180.645 39.328 180.715 39.2747 180.768 39.2C180.843 39.104 180.896 38.9067 180.928 38.608C180.971 38.2987 181.003 37.8347 181.024 37.216C181.045 36.5867 181.061 35.7547 181.072 34.72V34.432ZM185.872 29.408L187.04 28.256C187.339 28.4053 187.653 28.5813 187.984 28.784C188.315 28.9867 188.629 29.1893 188.928 29.392C189.237 29.5947 189.488 29.792 189.68 29.984L188.448 31.264C188.267 31.0827 188.032 30.88 187.744 30.656C187.456 30.432 187.147 30.2133 186.816 30C186.485 29.776 186.171 29.5787 185.872 29.408ZM187.76 33.536L189.712 34C189.04 36.08 188.123 37.92 186.96 39.52C185.797 41.1093 184.421 42.3947 182.832 43.376C182.747 43.2373 182.619 43.0667 182.448 42.864C182.277 42.672 182.101 42.4747 181.92 42.272C181.739 42.08 181.579 41.92 181.44 41.792C182.976 40.96 184.277 39.84 185.344 38.432C186.411 37.0133 187.216 35.3813 187.76 33.536ZM178.208 30.8H190.56V32.688H178.208V30.8ZM176.928 30.8H178.944V35.52C178.944 36.1173 178.923 36.7733 178.88 37.488C178.837 38.192 178.757 38.9173 178.64 39.664C178.523 40.4 178.347 41.1093 178.112 41.792C177.888 42.4747 177.595 43.088 177.232 43.632C177.125 43.4933 176.965 43.3387 176.752 43.168C176.549 42.9973 176.341 42.8267 176.128 42.656C175.925 42.496 175.749 42.384 175.6 42.32C176.005 41.68 176.299 40.9653 176.48 40.176C176.672 39.376 176.795 38.5707 176.848 37.76C176.901 36.9493 176.928 36.1973 176.928 35.504V30.8ZM183.424 28.416H185.44C185.419 29.728 185.456 31.0133 185.552 32.272C185.648 33.5307 185.787 34.7093 185.968 35.808C186.16 36.896 186.384 37.8613 186.64 38.704C186.896 39.536 187.179 40.1867 187.488 40.656C187.797 41.1253 188.112 41.36 188.432 41.36C188.613 41.36 188.752 41.1413 188.848 40.704C188.955 40.2667 189.029 39.5467 189.072 38.544C189.296 38.7573 189.557 38.9653 189.856 39.168C190.165 39.3707 190.448 39.52 190.704 39.616C190.608 40.608 190.464 41.376 190.272 41.92C190.08 42.4533 189.824 42.8213 189.504 43.024C189.184 43.2267 188.773 43.328 188.272 43.328C187.696 43.328 187.173 43.1307 186.704 42.736C186.245 42.3413 185.835 41.792 185.472 41.088C185.12 40.384 184.816 39.5573 184.56 38.608C184.304 37.6587 184.091 36.6293 183.92 35.52C183.76 34.4107 183.637 33.2587 183.552 32.064C183.477 30.8587 183.435 29.6427 183.424 28.416Z" fill="#E95B2B"/>
</g>
<defs>
<filter id="filter0_d_191_13090" x="0" y="0" width="256" height="64" filterUnits="userSpaceOnUse" color-interpolation-filters="sRGB">
<feFlood flood-opacity="0" result="BackgroundImageFix"/>
<feColorMatrix in="SourceAlpha" type="matrix" values="0 0 0 0 0 0 0 0 0 0 0 0 0 0 0 0 0 0 127 0" result="hardAlpha"/>
<feOffset dy="-4"/>
<feGaussianBlur stdDeviation="4"/>
<feComposite in2="hardAlpha" operator="out"/>
<feColorMatrix type="matrix" values="0 0 0 0 0 0 0 0 0 0 0 0 0 0 0 0 0 0 0.1 0"/>
<feBlend mode="normal" in2="BackgroundImageFix" result="effect1_dropShadow_191_13090"/>
<feBlend mode="normal" in="SourceGraphic" in2="effect1_dropShadow_191_13090" result="shape"/>
</filter>
<clipPath id="clip0_191_13090">
<rect width="24" height="24" fill="white" transform="translate(56.5 24)"/>
</clipPath>
</defs>
</svg>
