<svg width="276" height="84" viewBox="0 0 276 84" fill="none" xmlns="http://www.w3.org/2000/svg">
<g filter="url(#filter0_d_191_12601)">
<rect x="18" y="22" width="240" height="48" rx="24" fill="#E95B2B" shape-rendering="crispEdges"/>
<rect x="13" y="17" width="250" height="58" rx="29" stroke="#DD340D" stroke-opacity="0.6" stroke-width="10" shape-rendering="crispEdges"/>
<g clip-path="url(#clip0_191_12601)">
<path d="M74.2631 36.57C73.8194 36.4276 73.416 36.1814 73.0865 35.8519C72.757 35.5224 72.5108 35.119 72.3684 34.6753C72.3407 34.6148 72.2962 34.5636 72.2402 34.5277C72.1842 34.4918 72.1191 34.4727 72.0526 34.4727C71.9861 34.4727 71.921 34.4918 71.865 34.5277C71.809 34.5636 71.7645 34.6148 71.7368 34.6753C71.5935 35.1185 71.347 35.5214 71.0176 35.8508C70.6882 36.1802 70.2853 36.4267 69.8421 36.57C69.7816 36.5978 69.7304 36.6422 69.6944 36.6982C69.6585 36.7542 69.6394 36.8193 69.6394 36.8858C69.6394 36.9524 69.6585 37.0175 69.6944 37.0734C69.7304 37.1294 69.7816 37.1739 69.8421 37.2016C70.2851 37.3454 70.6877 37.5921 71.017 37.9214C71.3464 38.2507 71.593 38.6534 71.7368 39.0964C71.7645 39.1568 71.809 39.2081 71.865 39.244C71.921 39.2799 71.9861 39.299 72.0526 39.299C72.1191 39.299 72.1842 39.2799 72.2402 39.244C72.2962 39.2081 72.3407 39.1568 72.3684 39.0964C72.5113 38.6529 72.7576 38.2498 73.0871 37.9203C73.4165 37.5909 73.8196 37.3445 74.2631 37.2016C74.3236 37.1739 74.3748 37.1294 74.4107 37.0734C74.4467 37.0175 74.4658 36.9524 74.4658 36.8858C74.4658 36.8193 74.4467 36.7542 74.4107 36.6982C74.3748 36.6422 74.3236 36.5978 74.2631 36.57ZM80.2568 45.5258C79.5073 45.5258 78.7747 45.7481 78.1515 46.1645C77.5283 46.5809 77.0426 47.1727 76.7558 47.8651C76.469 48.5576 76.3939 49.3195 76.5401 50.0546C76.6864 50.7897 77.0473 51.4649 77.5772 51.9949C78.1072 52.5248 78.7824 52.8857 79.5175 53.032C80.2526 53.1782 81.0145 53.1031 81.707 52.8163C82.3994 52.5295 82.9912 52.0438 83.4076 51.4206C83.824 50.7975 84.0463 50.0648 84.0463 49.3153C84.0463 48.3114 83.6479 47.3485 82.9386 46.638C82.2293 45.9275 81.2671 45.5275 80.2631 45.5258H80.2568Z" fill="white"/>
<path d="M88.4737 41.1052H87.1221L86.0421 39.2104C85.8201 38.8258 85.5006 38.5066 85.1158 38.2848C84.731 38.063 84.2946 37.9466 83.8505 37.9473H77.3074C76.8633 37.9466 76.4269 38.063 76.0421 38.2848C75.6573 38.5066 75.3378 38.8258 75.1158 39.2104L74.0358 41.1052H69.5263C68.8563 41.1052 68.2137 41.3713 67.7399 41.8451C67.2662 42.3189 67 42.9615 67 43.6315V54.9999C67 55.6699 67.2662 56.3125 67.7399 56.7863C68.2137 57.2601 68.8563 57.5262 69.5263 57.5262H88.4737C89.1437 57.5262 89.7863 57.2601 90.2601 56.7863C90.7338 56.3125 91 55.6699 91 54.9999V43.6315C91 42.9615 90.7338 42.3189 90.2601 41.8451C89.7863 41.3713 89.1437 41.1052 88.4737 41.1052ZM70.7895 46.1578C70.5396 46.1578 70.2954 46.0837 70.0877 45.9449C69.88 45.8061 69.7181 45.6088 69.6225 45.378C69.5269 45.1472 69.5019 44.8932 69.5506 44.6482C69.5993 44.4032 69.7196 44.1781 69.8963 44.0014C70.0729 43.8248 70.298 43.7045 70.543 43.6558C70.7881 43.607 71.0421 43.632 71.2729 43.7276C71.5037 43.8232 71.7009 43.9851 71.8397 44.1929C71.9785 44.4006 72.0526 44.6448 72.0526 44.8946C72.0526 45.2296 71.9195 45.5509 71.6827 45.7878C71.4458 46.0247 71.1245 46.1578 70.7895 46.1578ZM80.2632 54.9999C79.1389 54.9999 78.0399 54.6665 77.1052 54.0419C76.1704 53.4173 75.4419 52.5296 75.0116 51.4909C74.5814 50.4523 74.4688 49.3094 74.6882 48.2068C74.9075 47.1041 75.4489 46.0913 76.2438 45.2963C77.0388 44.5014 78.0516 43.96 79.1542 43.7407C80.2569 43.5214 81.3998 43.6339 82.4384 44.0642C83.4771 44.4944 84.3648 45.2229 84.9894 46.1577C85.614 47.0925 85.9474 48.1915 85.9474 49.3157C85.9474 50.8232 85.3485 52.269 84.2825 53.335C83.2165 54.401 81.7707 54.9999 80.2632 54.9999Z" fill="white"/>
</g>
<path d="M106.213 39.396H113.429V44.74H106.069V43.332H111.637V40.788H106.213V39.396ZM105.301 41.428H112.565V42.676H105.301V41.428ZM112.261 41.348H114.501V42.724H112.261V41.348ZM104.693 45.268H114.485V48.516H112.757V46.788H106.341V48.532H104.693V45.268ZM105.749 47.892H112.757V49.332H107.429V52.868H105.749V47.892ZM111.909 47.892H113.541V51.3C113.541 51.6627 113.504 51.956 113.429 52.18C113.365 52.404 113.216 52.58 112.981 52.708C112.736 52.836 112.459 52.9107 112.149 52.932C111.84 52.9533 111.477 52.964 111.061 52.964C111.04 52.7293 110.987 52.4733 110.901 52.196C110.827 51.908 110.736 51.6573 110.629 51.444C110.864 51.4547 111.083 51.46 111.285 51.46C111.488 51.46 111.632 51.46 111.717 51.46C111.792 51.46 111.84 51.4493 111.861 51.428C111.893 51.396 111.909 51.3427 111.909 51.268V47.892ZM108.693 46.756H110.405V53.924H108.693V46.756ZM99.6373 46.948C100.256 46.8093 100.992 46.628 101.845 46.404C102.699 46.1693 103.563 45.9347 104.437 45.7L104.677 47.428C103.899 47.6733 103.104 47.9133 102.293 48.148C101.483 48.3827 100.736 48.596 100.053 48.788L99.6373 46.948ZM99.8933 41.94H104.901V43.7H99.8933V41.94ZM101.573 38.916H103.333V51.908C103.333 52.3453 103.285 52.692 103.189 52.948C103.104 53.2147 102.939 53.4227 102.693 53.572C102.459 53.7213 102.16 53.8227 101.797 53.876C101.445 53.9293 101.003 53.9507 100.469 53.94C100.448 53.7053 100.389 53.412 100.293 53.06C100.197 52.7187 100.091 52.42 99.9733 52.164C100.272 52.1747 100.544 52.1853 100.789 52.196C101.045 52.196 101.221 52.1907 101.317 52.18C101.413 52.18 101.477 52.164 101.509 52.132C101.552 52.0893 101.573 52.0147 101.573 51.908V38.916ZM122.869 44.628H131.477V53.812H129.653V46.292H124.613V53.892H122.869V44.628ZM123.861 48.004H130.453V49.636H123.861V48.004ZM123.909 51.412H130.501V53.092H123.909V51.412ZM126.229 45.444H127.941V52.74H126.229V45.444ZM116.901 47.092C117.392 46.996 117.936 46.8787 118.533 46.74C119.141 46.5907 119.776 46.436 120.437 46.276C121.109 46.1053 121.776 45.9347 122.437 45.764L122.661 47.492C121.744 47.748 120.811 48.004 119.861 48.26C118.912 48.516 118.043 48.7507 117.253 48.964L116.901 47.092ZM117.157 41.924H122.469V43.7H117.157V41.924ZM119.093 38.9H120.933V51.924C120.933 52.3827 120.885 52.74 120.789 52.996C120.693 53.252 120.512 53.4493 120.245 53.588C119.979 53.7267 119.648 53.8173 119.253 53.86C118.859 53.9133 118.384 53.94 117.829 53.94C117.797 53.6947 117.728 53.4067 117.621 53.076C117.525 52.7453 117.419 52.452 117.301 52.196C117.611 52.2067 117.909 52.2173 118.197 52.228C118.485 52.228 118.683 52.228 118.789 52.228C118.896 52.228 118.971 52.2067 119.013 52.164C119.067 52.1107 119.093 52.0253 119.093 51.908V38.9ZM122.101 40.836H126.757V42.596H122.101V40.836ZM123.829 38.9H125.733V44.004H123.829V38.9ZM128.357 38.9H130.261V44.004H128.357V38.9ZM127.269 40.804H132.085V42.564H127.269V40.804ZM140.021 52.724C138.976 52.724 138.053 52.4787 137.253 51.988C136.464 51.4867 135.845 50.772 135.397 49.844C134.949 48.916 134.725 47.8067 134.725 46.516C134.725 45.236 134.949 44.1427 135.397 43.236C135.845 42.3293 136.464 41.636 137.253 41.156C138.053 40.676 138.976 40.436 140.021 40.436C141.077 40.436 142 40.6813 142.789 41.172C143.579 41.652 144.197 42.3453 144.645 43.252C145.093 44.148 145.317 45.236 145.317 46.516C145.317 47.8067 145.093 48.916 144.645 49.844C144.197 50.772 143.579 51.4867 142.789 51.988C142 52.4787 141.077 52.724 140.021 52.724ZM140.021 50.788C140.608 50.788 141.115 50.6173 141.541 50.276C141.979 49.9347 142.315 49.444 142.549 48.804C142.784 48.164 142.901 47.4013 142.901 46.516C142.901 45.6733 142.784 44.9533 142.549 44.356C142.315 43.748 141.979 43.284 141.541 42.964C141.115 42.6333 140.608 42.468 140.021 42.468C139.435 42.468 138.923 42.6333 138.485 42.964C138.059 43.284 137.728 43.748 137.493 44.356C137.269 44.9533 137.157 45.6733 137.157 46.516C137.157 47.4013 137.269 48.164 137.493 48.804C137.728 49.444 138.059 49.9347 138.485 50.276C138.923 50.6173 139.435 50.788 140.021 50.788ZM143.861 55.716C143.019 55.716 142.267 55.572 141.605 55.284C140.944 54.996 140.384 54.6013 139.925 54.1C139.467 53.6093 139.109 53.0493 138.853 52.42L141.253 52.18C141.413 52.564 141.637 52.8787 141.925 53.124C142.224 53.3693 142.565 53.5453 142.949 53.652C143.333 53.7693 143.723 53.828 144.117 53.828C144.373 53.828 144.608 53.8067 144.821 53.764C145.045 53.7213 145.243 53.6733 145.413 53.62L145.845 55.364C145.632 55.46 145.355 55.54 145.013 55.604C144.672 55.6787 144.288 55.716 143.861 55.716ZM148.91 52.5V40.644H153.022C153.864 40.644 154.622 40.756 155.294 40.98C155.966 41.1933 156.499 41.5667 156.894 42.1C157.288 42.6227 157.486 43.3373 157.486 44.244C157.486 45.1187 157.288 45.8387 156.894 46.404C156.499 46.9587 155.966 47.3693 155.294 47.636C154.622 47.892 153.864 48.02 153.022 48.02H151.278V52.5H148.91ZM151.278 46.148H152.814C153.582 46.148 154.163 45.988 154.558 45.668C154.963 45.348 155.166 44.8733 155.166 44.244C155.166 43.604 154.963 43.1613 154.558 42.916C154.163 42.66 153.582 42.532 152.814 42.532H151.278V46.148ZM155.342 52.5L152.59 47.412L154.254 45.94L157.998 52.5H155.342ZM164.446 52.724C163.625 52.724 162.884 52.5373 162.222 52.164C161.561 51.7907 161.038 51.2573 160.654 50.564C160.27 49.86 160.078 49.012 160.078 48.02C160.078 47.028 160.286 46.1853 160.702 45.492C161.129 44.788 161.689 44.2493 162.382 43.876C163.086 43.5027 163.844 43.316 164.654 43.316C165.209 43.316 165.7 43.412 166.126 43.604C166.553 43.7853 166.932 44.0253 167.262 44.324L166.142 45.812C165.929 45.62 165.71 45.476 165.486 45.38C165.262 45.284 165.028 45.236 164.782 45.236C164.324 45.236 163.918 45.3533 163.566 45.588C163.225 45.812 162.958 46.132 162.766 46.548C162.585 46.964 162.494 47.4547 162.494 48.02C162.494 48.5853 162.585 49.076 162.766 49.492C162.958 49.908 163.22 50.2333 163.55 50.468C163.892 50.692 164.276 50.804 164.702 50.804C165.022 50.804 165.332 50.7347 165.63 50.596C165.929 50.4573 166.201 50.2867 166.446 50.084L167.374 51.636C166.948 52.0093 166.473 52.2867 165.95 52.468C165.438 52.6387 164.937 52.724 164.446 52.724ZM173.537 52.724C172.791 52.724 172.087 52.5373 171.425 52.164C170.775 51.7907 170.247 51.2573 169.841 50.564C169.436 49.86 169.233 49.012 169.233 48.02C169.233 47.028 169.436 46.1853 169.841 45.492C170.247 44.788 170.775 44.2493 171.425 43.876C172.087 43.5027 172.791 43.316 173.537 43.316C174.103 43.316 174.641 43.4227 175.153 43.636C175.665 43.8493 176.124 44.1587 176.529 44.564C176.935 44.9587 177.255 45.4493 177.489 46.036C177.724 46.612 177.841 47.2733 177.841 48.02C177.841 49.012 177.639 49.86 177.233 50.564C176.828 51.2573 176.295 51.7907 175.633 52.164C174.983 52.5373 174.284 52.724 173.537 52.724ZM173.537 50.804C173.943 50.804 174.284 50.692 174.561 50.468C174.849 50.2333 175.063 49.908 175.201 49.492C175.351 49.076 175.425 48.5853 175.425 48.02C175.425 47.4547 175.351 46.964 175.201 46.548C175.063 46.132 174.849 45.812 174.561 45.588C174.284 45.3533 173.943 45.236 173.537 45.236C173.132 45.236 172.785 45.3533 172.497 45.588C172.22 45.812 172.007 46.132 171.857 46.548C171.719 46.964 171.649 47.4547 171.649 48.02C171.649 48.5853 171.719 49.076 171.857 49.492C172.007 49.908 172.22 50.2333 172.497 50.468C172.785 50.692 173.132 50.804 173.537 50.804ZM184.241 52.724C183.494 52.724 182.844 52.5373 182.289 52.164C181.745 51.7907 181.324 51.252 181.025 50.548C180.726 49.844 180.577 49.0013 180.577 48.02C180.577 47.0493 180.753 46.2173 181.105 45.524C181.468 44.82 181.937 44.276 182.513 43.892C183.089 43.508 183.697 43.316 184.337 43.316C184.838 43.316 185.26 43.4067 185.601 43.588C185.953 43.7587 186.289 43.9933 186.609 44.292L186.529 42.884V39.732H188.881V52.5H186.961L186.785 51.572H186.721C186.39 51.892 186.012 52.164 185.585 52.388C185.158 52.612 184.71 52.724 184.241 52.724ZM184.849 50.788C185.169 50.788 185.462 50.7187 185.729 50.58C186.006 50.4307 186.273 50.1907 186.529 49.86V45.924C186.262 45.6787 185.985 45.508 185.697 45.412C185.42 45.3053 185.137 45.252 184.849 45.252C184.518 45.252 184.209 45.3587 183.921 45.572C183.644 45.7747 183.42 46.0787 183.249 46.484C183.078 46.8893 182.993 47.3907 182.993 47.988C182.993 48.6067 183.062 49.124 183.201 49.54C183.35 49.956 183.564 50.2707 183.841 50.484C184.118 50.6867 184.454 50.788 184.849 50.788ZM196.57 52.724C195.738 52.724 194.986 52.5373 194.314 52.164C193.642 51.7907 193.103 51.252 192.698 50.548C192.303 49.844 192.106 49.0013 192.106 48.02C192.106 47.2947 192.218 46.644 192.442 46.068C192.677 45.492 192.991 45.0013 193.386 44.596C193.791 44.18 194.239 43.8653 194.73 43.652C195.231 43.428 195.749 43.316 196.282 43.316C197.103 43.316 197.791 43.5027 198.346 43.876C198.901 44.2387 199.317 44.7453 199.594 45.396C199.882 46.036 200.026 46.772 200.026 47.604C200.026 47.8173 200.015 48.0253 199.994 48.228C199.973 48.42 199.946 48.5747 199.914 48.692H194.394C194.458 49.172 194.602 49.5773 194.826 49.908C195.05 50.2387 195.338 50.4893 195.69 50.66C196.042 50.82 196.442 50.9 196.89 50.9C197.253 50.9 197.594 50.852 197.914 50.756C198.234 50.6493 198.559 50.4947 198.89 50.292L199.69 51.732C199.253 52.0307 198.762 52.2707 198.218 52.452C197.674 52.6333 197.125 52.724 196.57 52.724ZM194.346 47.108H198.01C198.01 46.5107 197.871 46.036 197.594 45.684C197.327 45.3213 196.901 45.14 196.314 45.14C196.005 45.14 195.711 45.2147 195.434 45.364C195.157 45.5027 194.922 45.7213 194.73 46.02C194.538 46.308 194.41 46.6707 194.346 47.108Z" fill="white"/>
</g>
<defs>
<filter id="filter0_d_191_12601" x="0" y="0" width="276" height="84" filterUnits="userSpaceOnUse" color-interpolation-filters="sRGB">
<feFlood flood-opacity="0" result="BackgroundImageFix"/>
<feColorMatrix in="SourceAlpha" type="matrix" values="0 0 0 0 0 0 0 0 0 0 0 0 0 0 0 0 0 0 127 0" result="hardAlpha"/>
<feOffset dy="-4"/>
<feGaussianBlur stdDeviation="4"/>
<feComposite in2="hardAlpha" operator="out"/>
<feColorMatrix type="matrix" values="0 0 0 0 0 0 0 0 0 0 0 0 0 0 0 0 0 0 0.1 0"/>
<feBlend mode="normal" in2="BackgroundImageFix" result="effect1_dropShadow_191_12601"/>
<feBlend mode="normal" in="SourceGraphic" in2="effect1_dropShadow_191_12601" result="shape"/>
</filter>
<clipPath id="clip0_191_12601">
<rect width="24" height="23.0526" fill="white" transform="translate(67 34.4736)"/>
</clipPath>
</defs>
</svg>
