<svg width="32" height="32" viewBox="0 0 32 32" fill="none" xmlns="http://www.w3.org/2000/svg">
<rect width="32" height="32" rx="16" fill="url(#paint0_linear_347_424)"/>
<path d="M14.6406 18.1445C14.5234 18.6367 14.4609 19.2461 14.4531 19.9727H17.0664C17.0742 19.3789 17.1562 18.8516 17.3125 18.3906C17.4688 17.9219 17.7656 17.4883 18.2031 17.0898C18.7109 16.6133 19.1836 16.1367 19.6211 15.6602C20.0586 15.1758 20.4141 14.6562 20.6875 14.1016C20.9609 13.5391 21.0977 12.9141 21.0977 12.2266C21.0977 11.2734 20.8984 10.4609 20.5 9.78906C20.1094 9.10938 19.543 8.59375 18.8008 8.24219C18.0586 7.88281 17.1641 7.70312 16.1172 7.70312C15.1719 7.70312 14.3164 7.87109 13.5508 8.20703C12.7852 8.54297 12.1758 9.04688 11.7227 9.71875C11.2695 10.3906 11.0352 11.2188 11.0195 12.2031H13.8438C13.8594 11.6875 13.9727 11.2734 14.1836 10.9609C14.3945 10.6406 14.6719 10.4062 15.0156 10.2578C15.3594 10.1016 15.7266 10.0234 16.1172 10.0234C16.5859 10.0234 16.9766 10.1133 17.2891 10.293C17.6094 10.4727 17.8516 10.7344 18.0156 11.0781C18.1797 11.4219 18.2617 11.8398 18.2617 12.332C18.2617 12.7852 18.1758 13.1875 18.0039 13.5391C17.832 13.8828 17.6016 14.2109 17.3125 14.5234C17.0234 14.8281 16.6992 15.1523 16.3398 15.4961C15.8789 15.9492 15.5078 16.3789 15.2266 16.7852C14.9531 17.1914 14.7578 17.6445 14.6406 18.1445Z" fill="white"/>
<path d="M14.6523 22.5625C14.3633 22.8516 14.2188 23.207 14.2188 23.6289C14.2188 24.0508 14.3633 24.4102 14.6523 24.707C14.9414 24.9961 15.3359 25.1406 15.8359 25.1406C16.3359 25.1406 16.7305 24.9961 17.0195 24.707C17.3086 24.4102 17.4531 24.0508 17.4531 23.6289C17.4531 23.207 17.3086 22.8516 17.0195 22.5625C16.7305 22.2656 16.3359 22.1172 15.8359 22.1172C15.3359 22.1172 14.9414 22.2656 14.6523 22.5625Z" fill="white"/>
<defs>
<linearGradient id="paint0_linear_347_424" x1="0" y1="16" x2="32" y2="16" gradientUnits="userSpaceOnUse">
<stop offset="0.3125" stop-color="#F9A61A"/>
<stop offset="0.639423" stop-color="#F37721"/>
<stop offset="1" stop-color="#EC3023"/>
</linearGradient>
</defs>
</svg>
